/* XPM */
static char *_52d504a456f4efeac3849e1791245ce[] = {
/* columns rows colors chars-per-pixel */
"25 25 130 2 ",
"   c #603B1E",
".  c #573D24",
"X  c #5C3C24",
"o  c #5A3D29",
"O  c #613C23",
"+  c #5E412B",
"@  c #624226",
"#  c #694022",
"$  c #63432C",
"%  c #6A462B",
"&  c #67482B",
"*  c #6B492F",
"=  c #644631",
"-  c #654831",
";  c #6C4B33",
":  c #6B4C38",
">  c #734E33",
",  c #724F39",
"<  c #6E5036",
"1  c #6F5139",
"2  c #735136",
"3  c #7C5536",
"4  c #7F5837",
"5  c #75543A",
"6  c #79563A",
"7  c #7D593C",
"8  c #745741",
"9  c #795642",
"0  c #775941",
"q  c #7D5B43",
"w  c #755F51",
"e  c #7F6044",
"r  c #6E655A",
"t  c #7B6351",
"y  c #7D6857",
"u  c #74665B",
"i  c #756858",
"p  c #746B65",
"a  c #7B7168",
"s  c #855A37",
"d  c #81553C",
"f  c #835C3D",
"g  c #895E3D",
"h  c #88603D",
"j  c #825D42",
"k  c #856145",
"l  c #8C6343",
"z  c #8B6649",
"x  c #8D694B",
"c  c #926644",
"v  c #956A47",
"b  c #9A6C46",
"n  c #936749",
"m  c #956C4B",
"M  c #996E4E",
"N  c #9B6F4C",
"B  c #9A6E4B",
"V  c #9B704D",
"C  c #9C714E",
"Z  c #9C714E",
"A  c #806B5A",
"S  c #856B5A",
"D  c #8A6E58",
"F  c #966F50",
"G  c #926E52",
"H  c #977255",
"J  c #987152",
"K  c #9C7151",
"L  c #9D7250",
"P  c #9E7555",
"I  c #9E7557",
"U  c #9E7352",
"Y  c #92745C",
"T  c #9E7758",
"R  c #9E765C",
"E  c #A1714D",
"W  c #A2724C",
"Q  c #A5734E",
"!  c #A7784E",
"~  c #A77753",
"^  c #A37754",
"/  c #A37655",
"(  c #A27755",
")  c #A07757",
"_  c #A47654",
"`  c #A07552",
"'  c #A37856",
"]  c #A77955",
"[  c #A77A56",
"{  c #AB7A52",
"}  c #AA7A54",
"|  c #AB7B55",
" . c #AB7B57",
".. c #AD7D57",
"X. c #AF7E56",
"o. c #A97A56",
"O. c #A77C5A",
"+. c #A87A59",
"@. c #AB7D59",
"#. c #AC7F58",
"$. c #AF7F59",
"%. c #AF7F5B",
"&. c #AA7F5F",
"*. c #AC7E5A",
"=. c #B27D55",
"-. c #B37F57",
";. c #897260",
":. c #87796E",
">. c #8A7A6D",
",. c #967C65",
"<. c #847B72",
"1. c #B1815B",
"2. c #B7865D",
"3. c #B5855F",
"4. c #B7865E",
"5. c #B5835D",
"6. c #B8845D",
"7. c #B9865E",
"8. c #B8895F",
"9. c #9F8169",
"0. c #B68660",
"q. c #B78763",
"w. c #B58662",
"e. c #BB8760",
"r. c #BC8660",
"t. c #B18966",
"y. c #B58867",
"u. c #B98963",
"i. c #8C8681",
"p. c #8B8788",
/* pixels */
"r.1.m m g 6 6 k 6.( M M k 5 6 ; X 2 6 6 c b 3 { 4.",
"+.( m x 7 6 6 f I x k k 6 6 2 ; * 2 6 l m m , m T ",
"3 d M 5 ; 6 6 > X X X X & 2 o 5 M 7 3 q.&.6 X X o ",
"V v k 5 * = K b 3 3 6 > s c X ; k 7 6 j A ;.l 2 * ",
"_ F t m 7 ; 7 f m l g K N E 7 7 6 ; & 1 t 9.~ g 3 ",
"M D p R c 6 o - m g 3 X.' m b k 6 + X 7 c  .N f 6 ",
"m c 6 l  .e.X = m j 6 3 g l X * 6 @.t.6 g 3 X 2 6 ",
"E M > g ] -.@ ; m j 2 2 4 f @ ; 6 C ( 7 g d $ 7 k ",
"4.I X 3 v v 6 7 v 5 o X o $ 6 6 6 + X 6 6 6 6  .4.",
"4.' ; 6 g g r w j 5 ; g l l 6 l M c l 6 f f 7 N ( ",
"q.' 6 3 6 3 p i 7 6 6 $.$.X.6 M 4.q.y.7 e k 6 c m ",
"j 7 6 b -.$.M v v 5 + 7 l v X 6 J k f 6 i :.v m m ",
"g g 7 x ( O.l l m 5 = : 6 k d f k 7 6 g x x 8 k k ",
"c l 7 6 k v 3 7 l 2 o + ; 7 M k 6 5 2 ` M f O 2 f ",
"6 f M 2 ; 6 6 > X o X 2 2 7 m l 6 +   8.4.M 6 n G ",
"5 j M 6 k N 6 6 5 7 k k 5 5 ] C N - X !  .H S z k ",
"6 7 M k I 6.6 f N ] w.N 0 ; e.4.q.; X v m Y i.t 6 ",
"l l f 7 x K 3 7 M z g v u r V k ; o X m M z q = $ ",
"G x 5 6 z m 3 7 m g 3 v p p G 6 X X O m M l 3 # O ",
". X X ; l m 6 5 6 N u.j 6 6 5 6 7 v M 6 6 m e.6.5.",
"% % > 5 k l 6 0 6 m @.l 7 6 ; : : 9 7 7 g N  .*.$.",
"k g l f k m 6 5 ; 7 g 7 m l ; ; ; 2 5 7 g N m m m ",
"M l 6 6 ` 6.3 < X ; 5 + M 1.6 6 6 v M 6 6 j m m m ",
"N x 6 n U C v z 2 y >.9 l V c k 6 j q <.Y k j ; - ",
"N x 6 N Q m N v 6 a p.q g m b l 6 6 8 i.,.l 6 @ o "
};
