/* XPM */
static char *_bf0b39bbdfd4d898efce92f1f39e626[] = {
/* columns rows colors chars-per-pixel */
"25 25 141 2 ",
"   c #C63705",
".  c #C93A05",
"X  c #CB3B09",
"o  c #CC4306",
"O  c #C64D03",
"+  c #CC4C05",
"@  c #CD430A",
"#  c #CE4C0A",
"$  c #D1440C",
"%  c #D24C0C",
"&  c #CB5106",
"*  c #CD530B",
"=  c #CE5C0E",
"-  c #D3530D",
";  c #D8550D",
":  c #D45B0E",
">  c #D95A0E",
",  c #D64712",
"<  c #D54C11",
"1  c #DE4F17",
"2  c #D55411",
"3  c #DA5413",
"4  c #D55B12",
"5  c #D95C14",
"6  c #DD551A",
"7  c #DD5D19",
"8  c #E55E1E",
"9  c #D56314",
"0  c #DA6315",
"q  c #D46C16",
"w  c #DA6917",
"e  c #D76618",
"r  c #DB6519",
"t  c #D66E19",
"y  c #DB6B1A",
"u  c #DC721E",
"i  c #D8791F",
"p  c #E26D1E",
"a  c #E0711F",
"s  c #DE6A21",
"d  c #D77522",
"f  c #DE7521",
"g  c #D57D23",
"h  c #DD7B23",
"j  c #E16724",
"k  c #E36920",
"l  c #E46D29",
"z  c #E37523",
"x  c #E87524",
"c  c #E27C25",
"v  c #E67728",
"b  c #E47E2A",
"n  c #EF7E30",
"m  c #D68126",
"M  c #DC8226",
"N  c #DE8529",
"B  c #DD8A2A",
"V  c #E28027",
"C  c #E08125",
"Z  c #E48126",
"A  c #E18127",
"S  c #E18329",
"D  c #E48229",
"F  c #E18629",
"G  c #E1862B",
"H  c #E0852C",
"J  c #E4862C",
"K  c #E7842F",
"L  c #E5872F",
"P  c #E3862C",
"I  c #E8862D",
"U  c #E3882B",
"Y  c #E18A2D",
"T  c #E38A2E",
"R  c #E28B2E",
"E  c #E58A2D",
"W  c #E48B2D",
"Q  c #E38F2F",
"!  c #E48B2E",
"~  c #E8892F",
"^  c #E0902F",
"/  c #E28631",
"(  c #EF8434",
")  c #E78E30",
"_  c #E78E32",
"`  c #E48C31",
"'  c #E88A33",
"]  c #EC8C31",
"[  c #F08333",
"{  c #F18930",
"}  c #E39332",
"|  c #E39533",
" . c #E19736",
".. c #E69635",
"X. c #E59435",
"o. c #EA9737",
"O. c #E99437",
"+. c #E19937",
"@. c #E79B36",
"#. c #E89837",
"$. c #EE963C",
"%. c #EA9538",
"&. c #E59939",
"*. c #E79F3B",
"=. c #E49D39",
"-. c #E99D3D",
";. c #E89E3D",
":. c #EB9B3C",
">. c #F29339",
",. c #F2993D",
"<. c #E4A33D",
"1. c #E6A13B",
"2. c #ECA13E",
"3. c #E5A740",
"4. c #EDA543",
"5. c #EEA441",
"6. c #EFA246",
"7. c #EDA340",
"8. c #EFA947",
"9. c #ECAC46",
"0. c #EEAD49",
"q. c #F5AB48",
"w. c #EFB049",
"e. c #E9B44A",
"r. c #EBB54B",
"t. c #EAB34C",
"y. c #EBB64C",
"u. c #ECB74D",
"i. c #EDBA4F",
"p. c #EBBB4F",
"a. c #F0B14A",
"s. c #F2B24E",
"d. c #F4B54E",
"f. c #F1B54C",
"g. c #EFBA52",
"h. c #F1B650",
"j. c #F4B952",
"k. c #EFC758",
"l. c #F0C052",
"z. c #F1CD5D",
"x. c #F7CE5C",
/* pixels */
"u w ; ; r y 5.-.#.U v 4 , . @ % - 2 - 0 w y w a h ",
"u y : 4 r y o..._ Z v 4 < o - - 4 ; - e w u u c h ",
"h z e 0 4 4 b c y u v 2 - 4 h c L 5 ; 4 q Q  .B N ",
"h h f y 4 4 r 0 2 3 5 4 % 3 f h V 4 - : t 5.k.3.*.",
"c h u 0 4 - % % o % ; w r 5 4 = = - - 5 h d.z.u.a.",
"M h y 5 - - # # o - : u p e % @ o % * e m e.i.t.w.",
"u w - ; 2 % - - 2 w c W c u 0 0 5 - * y g } g W ` ",
"y 0 - ; - - % 2 4 u N R D u 0 e w > 4 e g Q h N R ",
"w 0 - : : - 2 4 u M Q G p 4 : f R h v - : w 0 u h ",
"e 0 - : 4 4 0 w G | -.V 0 % 0 c =.S b # 4 y u u u ",
"0 0 4 0 r 0 u f +.<.8.c 6 , p L 6.' n % 4 u v y y ",
"5 5 ; 4 4 4 h H y.e.s.L 8 @ < 0 z 5 6 X o ; 3 4 4 ",
"w q h u = - 7 j $.:.,.x 8 $ @ < 3 O * O % , # ; > ",
"f h ` c 9 : # 2 h M D w 1 $ @ @ @ 4 e 0 2 @ # 4 0 ",
"R Q ....h 0 # + - : 7 % $ .   @ $ 2.h.0.[ - % f c ",
"R ` } =.M w # % % # % @ X . . $ - 9.l.8.[ - % u h ",
"Q Q Q <.B u * # # @ X   X X o % 4 p.x.0.( % % s f ",
"5 5 r w w 5 h V R e $ . o @ % % % f c y 5 @ % 2 ; ",
"* - 5 5 0 5 B B =.d % X o % - + O e k 7 < o % # # ",
"0 : ; - 2 ; 2.7.f./ 2 $ % - 5 y h 4 <   . @ 2 9 w ",
"m g q 5 : 9 { ] >.l < @ & 4 0 u c 4 2 o @ % 4 d M ",
"a.q.:.b z h e 9 : # o @ O ; : 0 u 4 4 w 7 2 4 ` @.",
"g.j.j.o.I ` 9 4 + @ . X + # - - 4 0 e ' v 5 2 N ^ ",
"H L W c W @.M f 5 2 % @ o o % - : u i X.~ p 4 y y ",
"c c c f W 1.R V 0 4 3 $ @ @ % - ; h M %._ u : 9 0 "
};
