/* XPM */
static char *d314c10c36774f39b4c6a9a66bef6be1[] = {
/* columns rows colors chars-per-pixel */
"25 25 171 2 ",
"   c #193D14",
".  c #463E26",
"X  c #573C2A",
"o  c #5A3E2B",
"O  c #054D0B",
"+  c #094B0A",
"@  c #044B07",
"#  c #04530C",
"$  c #065712",
"%  c #0E5515",
"&  c #155213",
"*  c #195019",
"=  c #28491E",
"-  c #274A1D",
";  c #34431C",
":  c #205C1E",
">  c #076119",
",  c #086218",
"<  c #0C6D1E",
"1  c #09741F",
"2  c #1C5B22",
"3  c #3F5D29",
"4  c #345A29",
"5  c #1F6A29",
"6  c #077321",
"7  c #0B7322",
"8  c #077F25",
"9  c #0B7C25",
"0  c #0D7F28",
"q  c #107926",
"w  c #107728",
"e  c #117C29",
"r  c #206526",
"t  c #216728",
"y  c #206A2B",
"u  c #3A6437",
"i  c #2E7235",
"p  c #5A412C",
"a  c #465229",
"s  c #4B522A",
"d  c #465126",
"f  c #504F30",
"g  c #554F39",
"h  c #5D4932",
"j  c #4A5633",
"k  c #5B5D35",
"l  c #60432F",
"z  c #634531",
"x  c #6C4C35",
"c  c #625434",
"v  c #6E523A",
"b  c #63563D",
"n  c #76543C",
"m  c #79563D",
"M  c #775C3F",
"N  c #7B593F",
"B  c #745237",
"V  c #45693D",
"C  c #765742",
"Z  c #795640",
"A  c #7F5B41",
"S  c #516F55",
"D  c #746141",
"F  c #7A6353",
"G  c #6C6C6B",
"H  c #835E43",
"J  c #846145",
"K  c #8B6447",
"L  c #8B6549",
"P  c #956C4E",
"I  c #9A6D4E",
"U  c #9D704F",
"Y  c #91794D",
"T  c #966E50",
"R  c #947050",
"E  c #9D7353",
"W  c #92735E",
"Q  c #A27654",
"!  c #AB7E5D",
"~  c #A57A58",
"^  c #817368",
"/  c #82786F",
"(  c #827265",
")  c #837F7E",
"_  c #068127",
"`  c #098127",
"'  c #078428",
"]  c #0B852B",
"[  c #098C2E",
"{  c #13822D",
"}  c #0A902F",
"|  c #0B8D30",
" . c #168934",
".. c #0C9334",
"X. c #0B9A36",
"o. c #0D9F3A",
"O. c #149136",
"+. c #0EA73E",
"@. c #0EA83E",
"#. c #11A53D",
"$. c #11A93F",
"%. c #0DAA41",
"&. c #15AC45",
"*. c #12B349",
"=. c #22BD58",
"-. c #3FB966",
";. c #5FBA75",
":. c #65B075",
">. c #1CC556",
",. c #1EC95A",
"<. c #1DC558",
"1. c #20C356",
"2. c #21CD5D",
"3. c #2CCE67",
"4. c #37C468",
"5. c #33CB6B",
"6. c #3DCA6C",
"7. c #22D464",
"8. c #2CD168",
"9. c #3CD271",
"0. c #3BE17A",
"q. c #43E37F",
"w. c #AF825D",
"e. c #B4845F",
"r. c #BB855F",
"t. c #A3846F",
"y. c #B68561",
"u. c #B98661",
"i. c #5DD482",
"p. c #63D68B",
"a. c #45E782",
"s. c #46EB86",
"d. c #48EA86",
"f. c #46EA89",
"g. c #49EA89",
"h. c #50E68C",
"j. c #55EC8F",
"k. c #5DE090",
"l. c #58EB90",
"z. c #66E195",
"x. c #6AE496",
"c. c #65E996",
"v. c #69E598",
"b. c #6CEC9C",
"n. c #65EA99",
"m. c #73EA9E",
"M. c #76E69C",
"N. c #73EAA1",
"B. c #7AECA4",
"V. c #78E7A4",
"C. c #878788",
"Z. c #8FD3A3",
"A. c #8EDBA7",
"S. c #82EDAA",
"D. c #8AE9A9",
"F. c #87F0AE",
"G. c #93F3B9",
"H. c #9AF5BC",
"J. c #94F2B6",
"K. c #A1EAB9",
"L. c #A3F6C3",
"P. c #A8F6C4",
"I. c #A8FBC7",
"U. c #AFF7CF",
"Y. c #AFFBCC",
"T. c #B3FCCE",
"R. c #BAFBCE",
"E. c #B7FCD0",
"W. c #B7FBD2",
"Q. c #B8FBD0",
"!. c #B9FCD1",
/* pixels */
"y.T T P L n m m y.E 3 O O O O b o o m m m u.P m y.",
"n P H X l m m N p h u y 5 t r g R P m ! y.P B o o ",
"L L H z z x K K - O Z.!.Q.!.W.:.O L m P E W J B l ",
"y.m n m v X e.Y V i A.L.G.G.J.;.> c c o o C.t.u.m ",
"P G ^ y.! m o O Z.E.S.b.7.7.7.1.%.# O n m u.Q P n ",
"T G ( y.~ =   R.D.V.G.I.7.,.%.0 # {  .  h e.E P n ",
"I m A P E # @ T.S.m.P.R.7.>.$.9 O [ | O = P B o n ",
"y.p x & : K.K.B.L.U.F.B.7.>.+.#.o.[ [ 9 < & s n w.",
"y.X x O % E.Y.m.L.Q.S.b.8.<.+.@.+.[ [ ` q # a m u.",
"y.m m O % !.T.g.b.N.P.T.T.H.m.6.[ [ | [ { O a m P ",
"w.n m O % R.T.g.l.n.L.T.L.G.n.4.......[ { O s m P ",
"m m K O % E.W.g.g.f.H.R.N.n.f.8.@.@.$.` q O k P P ",
"J n H O % E.T.d.f.s.H.T.m.n.s.3.#.X.X.] e O d n J ",
"P n m O % W.T.g.s.f.H.T.N.n.s.5.@.| [ | { O ; X m ",
"m P H O % N.B.d.s.f.M.B.h.l.b.9.@.[ [ ] 9 O a n P ",
"n P H O % m.b.s.a.d.v.m.f.j.N.6.@.[ [ 8 w O j F L ",
"m P L O $ m.b.7.0.s.v.m.m.N.m.-.[ 7 1 ` w O S C.m ",
"P n n + * p.i.7.0.q.k.z.x.z.x.5.| 7 6 9 < & s m o ",
"P n m m N + O #.,.7.*.#.[ [ [ ` 1 7 6 @ a P H N o ",
"o X l m A k j  .=.2.&.#.....] 9 6 < < f v m E y.y.",
"v L J m m N m O O.+.X.[ %.X.6 6 6 O O n m ! Q I U ",
"n P L m m Z m c 2 , ' [ ..| [ 7 $ . . B m u.Q P P ",
"L H A m H ~ m m - O _ [ | } | 7 O x H n n K P P P ",
"T m m m L r.N N o v 4 # # # # b m m P M C n K P P ",
"P m L y.! P P P n / u O O O O D m n m ) C.P H m o "
};
