/* XPM */
static char *_49e99fa91684e5088ccbdfe3adf34de[] = {
/* columns rows colors chars-per-pixel */
"25 25 120 2 ",
"   c #BE8F1E",
".  c #BF8F20",
"X  c #C08E1D",
"o  c #CA9B17",
"O  c #C5941E",
"+  c #C9951B",
"@  c #CA9A1A",
"#  c #DDA81E",
"$  c #E1AB1E",
"%  c #E7B01F",
"&  c #E9B41C",
"*  c #F4BD1C",
"=  c #F8BE1F",
"-  c #C09320",
";  c #CF9E27",
":  c #C69F2A",
">  c #C7A029",
",  c #DEA922",
"<  c #D3AE2A",
"1  c #D4AE34",
"2  c #E0A722",
"3  c #E2AA21",
"4  c #E8AF22",
"5  c #E6B022",
"6  c #E8B121",
"7  c #E7B925",
"8  c #E9BA26",
"9  c #E7BB2E",
"0  c #E9BD2D",
"q  c #F4BA23",
"w  c #FABD24",
"e  c #E7BC31",
"r  c #EBBD33",
"t  c #FFC704",
"y  c #FEC905",
"u  c #F4C80F",
"i  c #F3C41E",
"p  c #F6D111",
"a  c #EFC226",
"s  c #ECC12D",
"d  c #EDCC2F",
"f  c #F3C525",
"g  c #F9C125",
"h  c #F6CC27",
"j  c #F8CB27",
"k  c #F1C429",
"l  c #FCC72D",
"z  c #F5CD2A",
"x  c #F9CA29",
"c  c #FADC22",
"v  c #F6D32D",
"b  c #EEC130",
"n  c #EBCD34",
"m  c #F1C430",
"M  c #F8CD30",
"N  c #F1CE3C",
"B  c #EFD133",
"V  c #EED63E",
"C  c #F1D434",
"Z  c #F2D63C",
"A  c #F8D53B",
"S  c #F2DC38",
"D  c #F5E236",
"F  c #F8E237",
"G  c #F6E239",
"H  c #F8E23A",
"J  c #F6EA3C",
"K  c #F9E93C",
"L  c #EFD542",
"P  c #EFDB45",
"I  c #F0D641",
"U  c #F7DA40",
"Y  c #F0D64E",
"T  c #F1DF4D",
"R  c #EED650",
"E  c #EEDD59",
"W  c #F0D550",
"Q  c #F3D750",
"!  c #F0D85C",
"~  c #F2D85D",
"^  c #F4D85D",
"/  c #F0DC5F",
"(  c #F2E244",
")  c #F2E446",
"_  c #F6E444",
"`  c #F6EA46",
"'  c #F8ED43",
"]  c #F3E54E",
"[  c #F8E549",
"{  c #F4EA4D",
"}  c #F6EC4D",
"|  c #F6EC4F",
" . c #F8EB4F",
".. c #F8EC4C",
"X. c #F1E555",
"o. c #F3E457",
"O. c #F1E656",
"+. c #F5EA50",
"@. c #F7EA50",
"#. c #F6EB53",
"$. c #F7EC52",
"%. c #F4ED56",
"&. c #F7EC56",
"*. c #F1E658",
"=. c #F3E75A",
"-. c #F3EC5E",
";. c #F2ED5D",
":. c #F8ED5D",
">. c #F5F056",
",. c #F5F05E",
"<. c #F4EF60",
"1. c #F6ED6A",
"2. c #F5ED7E",
"3. c #F4EF87",
"4. c #F8F580",
"5. c #F5F088",
"6. c #F3F18D",
"7. c #F3F38F",
"8. c #F5F18D",
"9. c #F5F38E",
/* pixels */
"% % 5 % 6 6 6 6 6 6 % 6 6 6 6 6 6 6 6 6 % % % + X ",
"5 6 0 s b b s b b s 0 r s s 0 s s s s 0 8 & & O   ",
"5 8 ' %.<.<.<.<.<...` <.| K J K J J K J c y y @   ",
"4 0 { P I I I I Z C C V Z C C C C C C C h u y @   ",
"5 e *.n d V Y W R R W Y L Z C C C Z B k a i y @   ",
"5 0 O.n P -.2.5.3.3.3.3.1.@.@.@.@.@.[ h f * t @   ",
"5 9 O.n E 7.,.>.J J G h z z z f w w q # $ * y @   ",
"5 9 ] n / 7.:. .J J F j h j h f w w q 2 4 * y @   ",
"5 8 D k ~ 9.| J J J D h h h g w w w q 2 4 * y @   ",
"5 8 ( k ~ 9.| J J J D h h h g w w w q 2 4 * y @   ",
"5 e O.m ~ 9.| J J J D j h h g w w w q 2 5 * y @   ",
"5 e O.m ^ 9.U v v v v h h h g w w h f , 6 * y @   ",
"5 9 T k W 4.A h h h h z h h g w w z k , 4 * y @   ",
"5 7 D k Z $.v h j j j j j j g w w z k 2 5 * y @   ",
"5 8 D k Z @.v z w w w w = g w w w h k , 5 * y @   ",
"4 8 ) a Z @.M f w w w w w w w w f h k , 5 * y @   ",
"5 9 *.m Z @.l w w w w w w w w f z h k , 6 * y o   ",
"5 8 G k Z @.j w w w g j f f f h j D C , 4 * y @   ",
"5 7 D k Z %.j w w w g h h h h h h J S 2 5 * y @   ",
"5 7 D k a h 5 , , , , 2 2 $ 2 $ 2 , , , 4 * y @   ",
"5 7 D k f h 5 $ $ $ $ $ $ $ $ $ $ $ $ 2 6 q p @   ",
"5 8 G z k k k k k k k k k k k k k k k k k N *.>   ",
"5 8 J G G G G G H G G G G H G G G G G D _ =.-.:   ",
"@ ; < < < < < < < < < < < < < < < < < < 1 1 1 -   ",
"  .                                     X X X     "
};
