/* XPM */
static char *adfee9711fb8477db5e252907a93fde3[] = {
/* columns rows colors chars-per-pixel */
"25 25 123 2 ",
"   c #251807",
".  c #291A07",
"X  c #25170A",
"o  c #261909",
"O  c #2B1D0D",
"+  c #3F1F08",
"@  c #2E200D",
"#  c #35230D",
"$  c #332412",
"%  c #382512",
"&  c #3C2915",
"*  c #441B07",
"=  c #421E0A",
"-  c #44210D",
";  c #412A14",
":  c #572C19",
">  c #592C19",
",  c #6B3626",
"<  c #663826",
"1  c #6B3827",
"2  c #6C3F31",
"3  c #6E4026",
"4  c #6E442B",
"5  c #70442A",
"6  c #6B4130",
"7  c #694932",
"8  c #744F35",
"9  c #7B4E33",
"0  c #6E523D",
"q  c #755035",
"w  c #7F5137",
"e  c #745540",
"r  c #8B4B3F",
"t  c #815336",
"y  c #82543A",
"u  c #86583B",
"i  c #8A5B3C",
"p  c #945E3E",
"a  c #92603F",
"s  c #8B4D41",
"d  c #8A5C44",
"f  c #8F5F4D",
"g  c #925E42",
"h  c #905F4E",
"j  c #876349",
"k  c #89644A",
"l  c #9C6345",
"z  c #92634B",
"x  c #9E664B",
"c  c #96684E",
"v  c #9C694D",
"b  c #8F6051",
"n  c #946654",
"m  c #9E6B50",
"M  c #9D725E",
"N  c #A26A47",
"B  c #A46B49",
"V  c #A56E55",
"C  c #AC755C",
"Z  c #AF785D",
"A  c #B37A5F",
"S  c #885E60",
"D  c #885A77",
"F  c #835E7C",
"G  c #895B78",
"H  c #886563",
"J  c #9C7160",
"K  c #836076",
"L  c #86637C",
"P  c #89657F",
"I  c #A67B63",
"U  c #AA7D66",
"Y  c #AB7E69",
"T  c #B47B64",
"R  c #B67C68",
"E  c #AD806D",
"W  c #B4846D",
"Q  c #BE876C",
"!  c #B6896C",
"~  c #BE896D",
"^  c #B78272",
"/  c #BB8671",
"(  c #B68A75",
")  c #BD8C73",
"_  c #BA8B79",
"`  c #BE9074",
"'  c #B7917C",
"]  c #C0886D",
"[  c #C4937C",
"{  c #4B3584",
"}  c #523E86",
"|  c #523D8A",
" . c #523D88",
".. c #543C88",
"X. c #553F88",
"o. c #523A8A",
"O. c #55408B",
"+. c #55408D",
"@. c #C59780",
"#. c #C69680",
"$. c #C79781",
"%. c #C99681",
"&. c #C7A393",
"*. c #CAB6AB",
"=. c #D1B6A5",
"-. c #D4B7A5",
";. c #DBBDB2",
":. c #DABEB2",
">. c #D4C2B6",
",. c #D7C3B8",
"<. c #D8C7C0",
"1. c #E1D2CB",
"2. c #E4D3CC",
"3. c #EEECED",
"4. c #EEEEEE",
"5. c #F0F0EE",
"6. c gray94",
"7. c #FFFFFB",
"8. c #FDFDFD",
"9. c #FCFEFD",
"0. c #FEFEFC",
"q. c #FFFFFD",
"w. c white",
/* pixels */
"O @ O O O O @ O O O O O X o o o o o o O O O O O O ",
"@ @ O O O O O @ O O O O   o o o o o o O O O O O O ",
"O O O O O O O O O O O O o o o . o o o O O O O O O ",
"O O O O O O O O O O # @ # # # # # % # O @ O o o O ",
"O O O O O O O O O @ $ $ ; ; ; ; & ; ; O O O O O O ",
"O O O O $ $ $ $ $ $ % % ; ; ; ; ; ; ; O O o o O O ",
"O O % k ! ! ` ) ` [ %.@.) ) ) ) ) ) ) Z Z q # % % ",
"O O % j ! ! ) ) ) [ @.@.) ) ) ) ) ) ) Z C 8 # $ % ",
"@ @ & k ! ! ) ) ) [ @.@.) ) ) ) ) ) ) C C 8 # $ $ ",
"0 0 e M ! ! W W W ( ( _ U U U W ) ) ) V V d 7 7 7 ",
"U Y U W W W U U U Y E E M J M U / ) ) m v v v v v ",
"U U U W W W U U U Y Y E J M M Y / / / x l v v v v ",
"W W ( <.6.5...} ..G R R / / / P +.O.o.3.3.*.I U U ",
"W W ( 1.q.q.o. .o.D R R ) ) ) L  .} { q.q.>.I U U ",
"W W _ 2.7.q.o. .o.G R R ) ) ) P  . .{ q.q.,.I U U ",
"C C U &.;.;.F F F S h f n n n H K L F =.-.' z c c ",
"l l x C T A ^ ^ W f 2 6 6 6 6 z Q ~ Q N B p t t t ",
"l l x C T T ^ ^ ^ b 6 6 6 6 2 z Q ~ ~ B N p t t t ",
"l l x C T T ^ / / b 2 6 2 6 2 z Q ] ~ B N p t t t ",
"g g g p g l - - - < s s r s s 1 - - - a p u t y t ",
"g g g g g l - - - < r r r r r < - - = i p u t y t ",
"t t t t t y - - - : , , 1 1 1 > - - = i i y w t t ",
"5 5 5 5 3 5 + - - = * * = - - - - - - u y t 9 9 9 ",
"4 4 4 4 4 4 - - - = = = - - - - - - - u u t 9 9 9 ",
"4 4 4 4 4 5 - - - = = = - - - - - - - u u t 9 9 9 "
};
